<svg width="24" height="24" viewBox="0 0 24 24" fill="none" xmlns="http://www.w3.org/2000/svg">
<path d="M21 8V20C21 21.1 20.1 22 19 22H5.99023C4.89023 22 4 21.1 4 20L4.00977 4C4.00977 2.9 4.9 2 6 2H15L21 8ZM6 12V18H7.5V16H8.5C9.33 16 10 15.33 10 14.5V13.5C10 12.67 9.33 12 8.5 12H6ZM11 12V18H13.5C14.33 18 15 17.33 15 16.5V13.5C15 12.67 14.33 12 13.5 12H11ZM16 12V18H17.5V16H19V14.5H17.5V13.5H19V12H16ZM13.5 13.5V16.5H12.5V13.5H13.5ZM8.5 13.5V14.5H7.5V13.5H8.5ZM14 9H19.5L14 3.5V9Z" fill="black"/>
</svg>
